<?xml version="1.0" encoding="utf-8"?>
<!-- Generator: Adobe Illustrator 16.0.0, SVG Export Plug-In . SVG Version: 6.00 Build 0)  -->
<!DOCTYPE svg PUBLIC "-//W3C//DTD SVG 1.1//EN" "http://www.w3.org/Graphics/SVG/1.1/DTD/svg11.dtd">
<svg version="1.1" id="Layer_1" xmlns="http://www.w3.org/2000/svg" xmlns:xlink="http://www.w3.org/1999/xlink" x="0px" y="0px"
	 width="1000px" height="1000px" viewBox="0 0 1000 1000" enable-background="new 0 0 1000 1000" xml:space="preserve">
<circle fill="#E9EAEA" cx="517.5" cy="515.641" r="342.5"/>
<g>
	<g>
		<path d="M440.841,242.403c-26.032,45.044-46.18,93.404-64.446,142.028c-18.979,50.521-35.53,101.941-50.969,153.643
			c-7.728,25.877-15.243,51.787-23.492,77.506c-9.221,28.747-18.422,57.525-25.035,87.008c-0.705,3.141,4.116,4.476,4.821,1.33
			c6.887-30.707,16.584-60.646,26.182-90.586c8.472-26.428,16.088-53.092,24.063-79.669c15.575-51.902,32.391-103.47,51.607-154.146
			c17.479-46.096,36.883-91.847,61.586-134.59C446.775,242.129,442.454,239.613,440.841,242.403L440.841,242.403z"/>
	</g>
</g>
<g>
	<g>
		<path d="M271.149,406.533c7.533-12.583,17.855-23.485,28.188-33.789c14.05-14.01,29.225-26.924,44.932-39.032
			c30.864-23.79,65.352-46.918,102.918-58.48c7.173-2.207,14.563-3.85,22.061-4.369c3.068-0.212,6.149-0.163,9.21,0.115
			c6.508,0.592,10.474,4.544,11.005,11.257c1.086,13.733-7.461,28.202-15.108,38.861c-5.394,7.519-11.629,14.216-18.467,20.422
			c-27.941,25.36-60.823,45.608-92.589,65.761c-4.141,2.627-8.353,5.171-12.396,7.948c-2.071,1.422-1.281,4.505,1.262,4.659
			c20.938,1.268,41.967,0.596,62.925,1.495c10.374,0.445,20.833,1.095,31.045,3.064c10.775,2.078,23.088,6.503,28.558,16.685
			c5.888,10.959-2.006,25.178-8.052,34.365c-3.372,5.124-7.26,9.904-11.209,14.589c-11.019,13.073-23.038,25.314-35.196,37.32
			c-28.068,27.715-57.558,54.156-88.235,78.954c-11.046,8.93-22.284,17.803-34.286,25.43c-7.85,4.988-16.423,8.829-25.364,11.386
			c-8.033,2.298-31.262,6.36-27.458-8.532c2.092-8.189,8.544-15.145,13.493-21.754c4.429-5.915,9.242-11.525,14.233-16.972
			c16.045-17.507,34.301-33.015,54.022-46.223c25.462-17.053,54.09-29.564,82.064-41.856c29.698-13.049,59.936-24.826,90.288-36.255
			c14.182-5.34,28.677-10.142,42.538-16.284c11.985-5.312,22.473-13.535,30.96-23.48c7.395-8.666,14.056-19.818,16.032-31.178
			c1.443-8.294,2.241-17.648-7.443-20.302c-10.815-2.963-21.18,6.805-28.356,13.441c-8.562,7.917-15.862,17.433-21.838,27.426
			c-10.039,16.786-19.02,41.103-4.467,57.951c17.155,19.861,42.804,7.205,58.823-6.756c21.646-18.863,37.148-44.932,50.963-69.738
			c1.571-2.82-2.67-5.296-4.316-2.523c-6.312,10.625-19.564,22.89-16.809,36.546c3.091,15.317,21.338,18.477,34.353,19.052
			c29.237,1.29,66.067-1.492,82.228-29.854c0.773-1.357,0.104-3.303-1.493-3.672c-14.09-3.262-26.751,5.35-38.759,11.414
			c-12.442,6.284-24.967,12.404-37.48,18.544c-11.811,5.795-23.628,11.58-35.356,17.542c-7.367,3.745-15.12,7.33-21.908,12.09
			c-2.103,1.475-1.251,4.417,1.262,4.659c53.459,5.15,106.768-3.604,160.228-3.807c3.224-0.012,3.225-5.012,0-5
			c-53.46,0.203-106.769,8.957-160.228,3.807c0.421,1.553,0.841,3.106,1.262,4.659c5.921-4.152,12.621-7.32,19.032-10.619
			c11.028-5.675,22.172-11.126,33.305-16.593c12.244-6.014,24.499-12.003,36.703-18.099c11.931-5.959,26.709-16.994,40.61-13.775
			c-0.497-1.224-0.995-2.448-1.493-3.672c-14.324,25.138-45.217,27.259-71.063,27.47c-11.868,0.097-32.062-0.12-36.154-14.361
			c-1.834-6.38,2.553-13.471,5.784-18.61c3.258-5.182,7.167-9.929,10.295-15.195c-1.438-0.841-2.878-1.682-4.316-2.523
			c-13.939,25.027-29.468,50.674-51.28,69.684c-9.236,8.049-20.96,15.408-33.653,14.729c-13.247-0.708-22.625-12.898-23.195-25.381
			c-0.53-11.596,4.634-23.226,10.117-33.14c5.89-10.648,13.602-20.317,22.383-28.716c4.617-4.417,10.359-9.639,16.513-11.733
			c2.632-0.896,5.468-0.836,8.116-0.11c3.617,0.991,3.299,3.738,3.316,6.718c0.074,12.914-6.433,25-14.274,34.907
			c-19.056,24.072-50.331,31.377-77.79,41.748c-29.505,11.143-58.834,22.758-87.711,35.447
			c-27.946,12.28-56.259,24.978-81.685,42.006c-19.309,12.932-37.081,28.273-52.912,45.273c-5.122,5.5-9.995,11.23-14.563,17.198
			c-4.884,6.38-10.034,12.696-13.476,20.007c-3.341,7.095-3.707,14.885,3.675,19.29c9.755,5.822,25.174,1.254,34.892-2.22
			c13.478-4.816,25.064-12.84,36.434-21.328c13.767-10.278,27.028-21.236,40.1-32.377c29.959-25.536,59.125-52.282,86.197-80.881
			c18.909-19.974,61.803-64.813,21.792-85.743c-16.158-8.452-36.167-8.629-53.938-9.302c-19.577-0.741-39.22-0.144-58.778-1.328
			c0.42,1.553,0.841,3.106,1.262,4.659c9.714-6.669,19.91-12.685,29.802-19.087c16.903-10.939,33.624-22.187,49.81-34.168
			c13.725-10.159,28.074-20.816,38.949-34.119c8.367-10.234,15.788-21.059,19.842-33.759c2.908-9.109,5.47-23.975-4.506-30.009
			c-5.547-3.355-13.454-2.922-19.696-2.418c-7.395,0.597-14.679,2.296-21.769,4.426c-17.531,5.267-34.157,13.6-50.013,22.633
			c-35.098,19.997-67.965,45.05-96.97,73.143c-11.773,11.402-23.58,23.682-32.045,37.822
			C265.171,406.783,269.496,409.296,271.149,406.533L271.149,406.533z"/>
	</g>
</g>
<text transform="matrix(1 0 0 1 463.001 530.6406)" font-family="'Bahnschrift'" font-size="33.0776">VELISLAV PACHAMANOV</text>
</svg>
